{"accessors" : [{"bufferView" : 0, "byteOffset" : 0, "componentType" : 5123, "count" : 8064, "type" : "SCALAR", "max" : [8063], "min" : [0]}, {"bufferView" : 1, "byteOffset" : 0, "componentType" : 5126, "count" : 8064, "type" : "VEC3", "max" : [8.340100288391113, 17.606599807739258, -67.30169677734375], "min" : [-8.799799919128418, 0.4666999876499176, -103.95179748535156]}, {"bufferView" : 1, "byteOffset" : 12, "componentType" : 5126, "count" : 8064, "type" : "VEC3", "max" : [1.0000044107437134, 1.0000044107437134, 1.0000039339065552], "min" : [-1.0000044107437134, -1.0000044107437134, -1.0000044107437134]}, {"bufferView" : 0, "byteOffset" : 16128, "componentType" : 5123, "count" : 5832, "type" : "SCALAR", "max" : [5831], "min" : [0]}, {"bufferView" : 2, "byteOffset" : 0, "componentType" : 5126, "count" : 5832, "type" : "VEC3", "max" : [8.147199630737305, 17.367000579833984, 1.3702000379562378], "min" : [-8.515399932861328, 0.7063999772071838, -69.46320343017578]}, {"bufferView" : 2, "byteOffset" : 12, "componentType" : 5126, "count" : 5832, "type" : "VEC2", "max" : [1.0277999639511108, -0.0006000000284984708], "min" : [0.017000000923871994, -0.9994000196456909]}, {"bufferView" : 2, "byteOffset" : 20, "componentType" : 5126, "count" : 5832, "type" : "VEC3", "max" : [1.0000044107437134, 1.0000044107437134, 1.0000044107437134], "min" : [-1.0000044107437134, -1.0000044107437134, -1.0000044107437134]}, {"bufferView" : 0, "byteOffset" : 27792, "componentType" : 5123, "count" : 18360, "type" : "SCALAR", "max" : [18359], "min" : [0]}, {"bufferView" : 3, "byteOffset" : 0, "componentType" : 5126, "count" : 18360, "type" : "VEC3", "max" : [7.738900184631348, 16.958799362182617, 14.718500137329102], "min" : [-8.107099533081055, 1.1145000457763672, 1.2616000175476074]}, {"bufferView" : 3, "byteOffset" : 12, "componentType" : 5126, "count" : 18360, "type" : "VEC2", "max" : [1.0277999639511108, -0.0012000000569969416], "min" : [0.016300000250339508, -0.800000011920929]}, {"bufferView" : 3, "byteOffset" : 20, "componentType" : 5126, "count" : 18360, "type" : "VEC3", "max" : [1.0000044107437134, 1.0000044107437134, 1.0000044107437134], "min" : [-1.0000044107437134, -1.0000044107437134, -1.0000044107437134]}, {"bufferView" : 0, "byteOffset" : 64512, "componentType" : 5123, "count" : 3528, "type" : "SCALAR", "max" : [3527], "min" : [0]}, {"bufferView" : 4, "byteOffset" : 0, "componentType" : 5126, "count" : 3528, "type" : "VEC3", "max" : [6.757999897003174, 15.976499557495117, 87.46880340576172], "min" : [-7.126200199127197, 2.0968000888824463, 64.0604019165039]}, {"bufferView" : 4, "byteOffset" : 12, "componentType" : 5126, "count" : 3528, "type" : "VEC2", "max" : [1, -0], "min" : [0, -1]}, {"bufferView" : 4, "byteOffset" : 20, "componentType" : 5126, "count" : 3528, "type" : "VEC3", "max" : [1.0000044107437134, 1.0000044107437134, 1.0000044107437134], "min" : [-1.0000044107437134, -1.0000044107437134, -1.0000044107437134]}, {"bufferView" : 0, "byteOffset" : 71568, "componentType" : 5123, "count" : 2496, "type" : "SCALAR", "max" : [2495], "min" : [0]}, {"bufferView" : 5, "byteOffset" : 0, "componentType" : 5126, "count" : 2496, "type" : "VEC3", "max" : [-5.135000228881836, 14.246600151062012, 84.66349792480469], "min" : [-13.863499641418457, 3.7497000694274902, 68.79170227050781]}, {"bufferView" : 5, "byteOffset" : 12, "componentType" : 5126, "count" : 2496, "type" : "VEC2", "max" : [0.9847999811172485, -0.08980000019073486], "min" : [0, -0.5382000207901001]}, {"bufferView" : 5, "byteOffset" : 20, "componentType" : 5126, "count" : 2496, "type" : "VEC3", "max" : [1.0000044107437134, 1.0000044107437134, 0.9665769338607788], "min" : [-1.0000044107437134, -1.0000044107437134, -1.0000044107437134]}, {"bufferView" : 0, "byteOffset" : 76560, "componentType" : 5123, "count" : 8316, "type" : "SCALAR", "max" : [8315], "min" : [0]}, {"bufferView" : 6, "byteOffset" : 0, "componentType" : 5126, "count" : 8316, "type" : "VEC3", "max" : [-8.466099739074707, 13.133099555969238, -12.016799926757812], "min" : [-15.500300407409668, 6.0991997718811035, -23.823299407958984]}, {"bufferView" : 6, "byteOffset" : 12, "componentType" : 5126, "count" : 8316, "type" : "VEC2", "max" : [1, -0], "min" : [0, -1]}, {"bufferView" : 6, "byteOffset" : 20, "componentType" : 5126, "count" : 8316, "type" : "VEC3", "max" : [1.0000044107437134, 1.0000044107437134, 1.0000044107437134], "min" : [-1.0000044107437134, -1.0000044107437134, -1.0000044107437134]}, {"bufferView" : 0, "byteOffset" : 93192, "componentType" : 5123, "count" : 2880, "type" : "SCALAR", "max" : [2879], "min" : [0]}, {"bufferView" : 7, "byteOffset" : 0, "componentType" : 5126, "count" : 2880, "type" : "VEC3", "max" : [-9.201700210571289, 12.397600173950195, -20.940799713134766], "min" : [-14.764699935913086, 6.834700107574463, -26.503700256347656]}, {"bufferView" : 7, "byteOffset" : 12, "componentType" : 5126, "count" : 2880, "type" : "VEC2", "max" : [1, 0], "min" : [0, -1]}, {"bufferView" : 7, "byteOffset" : 20, "componentType" : 5126, "count" : 2880, "type" : "VEC3", "max" : [1.0000044107437134, 1.0000044107437134, 1.0000044107437134], "min" : [-1.0000044107437134, -1.0000044107437134, -1.0000044107437134]}, {"bufferView" : 0, "byteOffset" : 98952, "componentType" : 5125, "count" : 288060, "type" : "SCALAR", "max" : [288059], "min" : [0]}, {"bufferView" : 8, "byteOffset" : 0, "componentType" : 5126, "count" : 288060, "type" : "VEC3", "max" : [-8.068900108337402, 11.514800071716309, 70.50559997558594], "min" : [-15.006999969482422, 7.06820011138916, -13.585700035095215]}, {"bufferView" : 8, "byteOffset" : 12, "componentType" : 5126, "count" : 288060, "type" : "VEC3", "max" : [0.9999794363975525, 0.9999549388885498, 0.9999526739120483], "min" : [-0.9999803900718689, -0.9999531507492065, -1.0000038146972656]}, {"bufferView" : 0, "byteOffset" : 1251192, "componentType" : 5123, "count" : 5832, "type" : "SCALAR", "max" : [5831], "min" : [0]}, {"bufferView" : 9, "byteOffset" : 0, "componentType" : 5126, "count" : 5832, "type" : "VEC3", "max" : [8.147199630737305, 17.367000579833984, 78.61139678955078], "min" : [-8.515399932861328, 0.7063999772071838, 14.594300270080566]}, {"bufferView" : 9, "byteOffset" : 12, "componentType" : 5126, "count" : 5832, "type" : "VEC2", "max" : [1.0277999639511108, -0.0006000000284984708], "min" : [0.017000000923871994, -0.9994000196456909]}, {"bufferView" : 9, "byteOffset" : 20, "componentType" : 5126, "count" : 5832, "type" : "VEC3", "max" : [1.0000044107437134, 1.0000044107437134, 1.0000044107437134], "min" : [-1.0000044107437134, -1.0000044107437134, -1.0000044107437134]}, {"bufferView" : 0, "byteOffset" : 1262856, "componentType" : 5123, "count" : 2640, "type" : "SCALAR", "max" : [2639], "min" : [0]}, {"bufferView" : 10, "byteOffset" : 0, "componentType" : 5126, "count" : 2640, "type" : "VEC3", "max" : [11.934000015258789, 12.870200157165527, 78.42849731445312], "min" : [6.406199932098389, 5.756800174713135, 23.09749984741211]}, {"bufferView" : 10, "byteOffset" : 12, "componentType" : 5126, "count" : 2640, "type" : "VEC2", "max" : [0.9908000230789185, -0.011300000362098217], "min" : [0.02250000089406967, -0.9675999879837036]}, {"bufferView" : 10, "byteOffset" : 20, "componentType" : 5126, "count" : 2640, "type" : "VEC3", "max" : [0.9999159574508667, 0.9999142289161682, 0.9997710585594177], "min" : [-0.9990578889846802, -0.9999144077301025, -1.0000040531158447]}, {"bufferView" : 0, "byteOffset" : 1268136, "componentType" : 5123, "count" : 3528, "type" : "SCALAR", "max" : [3527], "min" : [0]}, {"bufferView" : 11, "byteOffset" : 0, "componentType" : 5126, "count" : 3528, "type" : "VEC3", "max" : [3.0632998943328857, 19.096399307250977, 43.0973014831543], "min" : [-2.0934998989105225, 15.152600288391113, 37.942100524902344]}, {"bufferView" : 11, "byteOffset" : 12, "componentType" : 5126, "count" : 3528, "type" : "VEC2", "max" : [1, -0], "min" : [0, -1]}, {"bufferView" : 11, "byteOffset" : 20, "componentType" : 5126, "count" : 3528, "type" : "VEC3", "max" : [1.0000044107437134, 1.0000044107437134, 1.0000044107437134], "min" : [-1.0000044107437134, -1.0000044107437134, -1.0000044107437134]}, {"bufferView" : 0, "byteOffset" : 1275192, "componentType" : 5123, "count" : 3528, "type" : "SCALAR", "max" : [3527], "min" : [0]}, {"bufferView" : 12, "byteOffset" : 0, "componentType" : 5126, "count" : 3528, "type" : "VEC3", "max" : [3.0632998943328857, 19.096399307250977, 54.327999114990234], "min" : [-2.0934998989105225, 15.152600288391113, 49.17290115356445]}, {"bufferView" : 12, "byteOffset" : 12, "componentType" : 5126, "count" : 3528, "type" : "VEC2", "max" : [1, -0], "min" : [0, -1]}, {"bufferView" : 12, "byteOffset" : 20, "componentType" : 5126, "count" : 3528, "type" : "VEC3", "max" : [1.0000044107437134, 1.0000044107437134, 1.0000044107437134], "min" : [-1.0000044107437134, -1.0000044107437134, -1.0000044107437134]}, {"bufferView" : 0, "byteOffset" : 1282248, "componentType" : 5123, "count" : 1173, "type" : "SCALAR", "max" : [1172], "min" : [0]}, {"bufferView" : 13, "byteOffset" : 0, "componentType" : 5126, "count" : 1173, "type" : "VEC3", "max" : [1.127500057220459, 10.383199691772461, -103.51370239257812], "min" : [-1.5872999429702759, 7.674699783325195, -106.83509826660156]}, {"bufferView" : 13, "byteOffset" : 12, "componentType" : 5126, "count" : 1173, "type" : "VEC2", "max" : [1, -0.5651999711990356], "min" : [0, -1]}, {"bufferView" : 13, "byteOffset" : 20, "componentType" : 5126, "count" : 1173, "type" : "VEC3", "max" : [0.9559364914894104, 1.0000044107437134, 0.9492414593696594], "min" : [-0.9559364914894104, 0.28618916869163513, -0.9581765532493591]}], "asset" : {"generator" : "Aspose.3D 20.11", "version" : "2.0"}, "buffers" : [{"uri" : "buffer.bin", "byteLength" : 10251244}], "bufferViews" : [{"buffer" : 0, "byteOffset" : 0, "byteLength" : 1284596, "target" : 34963}, {"buffer" : 0, "byteOffset" : 1284600, "byteLength" : 193536, "byteStride" : 24, "target" : 34962}, {"buffer" : 0, "byteOffset" : 1478140, "byteLength" : 186624, "byteStride" : 32, "target" : 34962}, {"buffer" : 0, "byteOffset" : 1664768, "byteLength" : 587520, "byteStride" : 32, "target" : 34962}, {"buffer" : 0, "byteOffset" : 2252292, "byteLength" : 112896, "byteStride" : 32, "target" : 34962}, {"buffer" : 0, "byteOffset" : 2365192, "byteLength" : 79872, "byteStride" : 32, "target" : 34962}, {"buffer" : 0, "byteOffset" : 2445068, "byteLength" : 266112, "byteStride" : 32, "target" : 34962}, {"buffer" : 0, "byteOffset" : 2711184, "byteLength" : 92160, "byteStride" : 32, "target" : 34962}, {"buffer" : 0, "byteOffset" : 2803348, "byteLength" : 6913440, "byteStride" : 24, "target" : 34962}, {"buffer" : 0, "byteOffset" : 9716792, "byteLength" : 186624, "byteStride" : 32, "target" : 34962}, {"buffer" : 0, "byteOffset" : 9903420, "byteLength" : 84480, "byteStride" : 32, "target" : 34962}, {"buffer" : 0, "byteOffset" : 9987904, "byteLength" : 112896, "byteStride" : 32, "target" : 34962}, {"buffer" : 0, "byteOffset" : 10100804, "byteLength" : 112896, "byteStride" : 32, "target" : 34962}, {"buffer" : 0, "byteOffset" : 10213704, "byteLength" : 37536, "byteStride" : 32, "target" : 34962}], "meshes" : [{"primitives" : [{"attributes" : {"POSITION" : 1, "NORMAL" : 2}, "indices" : 0, "mode" : 4}]}, {"primitives" : [{"attributes" : {"POSITION" : 4, "TEXCOORD_0" : 5, "NORMAL" : 6}, "indices" : 3, "mode" : 4}]}, {"primitives" : [{"attributes" : {"POSITION" : 8, "TEXCOORD_0" : 9, "NORMAL" : 10}, "indices" : 7, "mode" : 4}]}, {"primitives" : [{"attributes" : {"POSITION" : 12, "TEXCOORD_0" : 13, "NORMAL" : 14}, "indices" : 11, "mode" : 4}]}, {"primitives" : [{"attributes" : {"POSITION" : 16, "TEXCOORD_0" : 17, "NORMAL" : 18}, "indices" : 15, "mode" : 4}]}, {"primitives" : [{"attributes" : {"POSITION" : 20, "TEXCOORD_0" : 21, "NORMAL" : 22}, "indices" : 19, "mode" : 4}]}, {"primitives" : [{"attributes" : {"POSITION" : 24, "TEXCOORD_0" : 25, "NORMAL" : 26}, "indices" : 23, "mode" : 4}]}, {"primitives" : [{"attributes" : {"POSITION" : 28, "NORMAL" : 29}, "indices" : 27, "mode" : 4}]}, {"primitives" : [{"attributes" : {"POSITION" : 31, "TEXCOORD_0" : 32, "NORMAL" : 33}, "indices" : 30, "mode" : 4}]}, {"primitives" : [{"attributes" : {"POSITION" : 35, "TEXCOORD_0" : 36, "NORMAL" : 37}, "indices" : 34, "mode" : 4}]}, {"primitives" : [{"attributes" : {"POSITION" : 39, "TEXCOORD_0" : 40, "NORMAL" : 41}, "indices" : 38, "mode" : 4}]}, {"primitives" : [{"attributes" : {"POSITION" : 43, "TEXCOORD_0" : 44, "NORMAL" : 45}, "indices" : 42, "mode" : 4}]}, {"primitives" : [{"attributes" : {"POSITION" : 47, "TEXCOORD_0" : 48, "NORMAL" : 49}, "indices" : 46, "mode" : 4}]}], "nodes" : [{"mesh" : 0, "name" : "Pen_01"}, {"mesh" : 1, "name" : "Pen_02"}, {"mesh" : 2, "name" : "Pen_03"}, {"mesh" : 3, "name" : "Pen_04"}, {"mesh" : 4, "name" : "Pen_05"}, {"mesh" : 5, "name" : "Pen_06"}, {"mesh" : 6, "name" : "Pen_07"}, {"mesh" : 7, "name" : "Pen_08"}, {"mesh" : 8, "name" : "Pen_09"}, {"mesh" : 9, "name" : "Pen_10"}, {"mesh" : 10, "name" : "Pen_11"}, {"mesh" : 11, "name" : "Pen_12"}, {"mesh" : 12, "name" : "Pen_13"}], "scene" : 0, "scenes" : [{"nodes" : [0, 1, 2, 3, 4, 5, 6, 7, 8, 9, 10, 11, 12]}]}