{"accessors" : [{"bufferView" : 0, "byteOffset" : 0, "componentType" : 5123, "count" : 516, "type" : "SCALAR", "max" : [515], "min" : [0]}, {"bufferView" : 1, "byteOffset" : 0, "componentType" : 5126, "count" : 516, "type" : "VEC3", "max" : [2.299999952316284, 7.400000095367432, 2.299999952316284], "min" : [-2.299999952316284, 0.4000000059604645, -2.299999952316284]}, {"bufferView" : 1, "byteOffset" : 12, "componentType" : 5126, "count" : 516, "type" : "VEC2", "max" : [1, -0], "min" : [0, -1]}, {"bufferView" : 1, "byteOffset" : 20, "componentType" : 5126, "count" : 516, "type" : "VEC3", "max" : [1.0000044107437134, 1.0000044107437134, 1.0000044107437134], "min" : [-1.0000044107437134, -1.0000044107437134, -1.0000044107437134]}, {"bufferView" : 0, "byteOffset" : 1032, "componentType" : 5123, "count" : 3420, "type" : "SCALAR", "max" : [3419], "min" : [0]}, {"bufferView" : 2, "byteOffset" : 0, "componentType" : 5126, "count" : 3420, "type" : "VEC3", "max" : [2.5, 0.4000000059604645, 2.5], "min" : [-2.5, 0, -2.5]}, {"bufferView" : 2, "byteOffset" : 12, "componentType" : 5126, "count" : 3420, "type" : "VEC2", "max" : [1, -0], "min" : [0, -1]}, {"bufferView" : 2, "byteOffset" : 20, "componentType" : 5126, "count" : 3420, "type" : "VEC3", "max" : [1.0000044107437134, 1.0000044107437134, 1.0000044107437134], "min" : [-1.0000044107437134, -1.0000044107437134, -1.0000044107437134]}, {"bufferView" : 0, "byteOffset" : 7872, "componentType" : 5123, "count" : 516, "type" : "SCALAR", "max" : [515], "min" : [0]}, {"bufferView" : 3, "byteOffset" : 0, "componentType" : 5126, "count" : 516, "type" : "VEC3", "max" : [7.099999904632568, 9.300000190734863, 1.899999976158142], "min" : [6, 5.5, -1.899999976158142]}, {"bufferView" : 3, "byteOffset" : 12, "componentType" : 5126, "count" : 516, "type" : "VEC2", "max" : [1, -0], "min" : [0, -1]}, {"bufferView" : 3, "byteOffset" : 20, "componentType" : 5126, "count" : 516, "type" : "VEC3", "max" : [1.0000044107437134, 1.0000044107437134, 1.0000044107437134], "min" : [-1.0000044107437134, -1.0000044107437134, -1.0000044107437134]}, {"bufferView" : 0, "byteOffset" : 8904, "componentType" : 5123, "count" : 126, "type" : "SCALAR", "max" : [125], "min" : [0]}, {"bufferView" : 4, "byteOffset" : 0, "componentType" : 5126, "count" : 126, "type" : "VEC3", "max" : [0.8500000238418579, 28.246299743652344, 22.350000381469727], "min" : [-0.8500000238418579, 28.246299743652344, 20.649999618530273]}, {"bufferView" : 4, "byteOffset" : 12, "componentType" : 5126, "count" : 126, "type" : "VEC2", "max" : [0.9998999834060669, -0], "min" : [9.999999747378752E-05, -1]}, {"bufferView" : 4, "byteOffset" : 20, "componentType" : 5126, "count" : 126, "type" : "VEC3", "max" : [0, -1.0000044107437134, 0], "min" : [0, -1.0000044107437134, 0]}, {"bufferView" : 0, "byteOffset" : 9156, "componentType" : 5123, "count" : 6978, "type" : "SCALAR", "max" : [6977], "min" : [0]}, {"bufferView" : 5, "byteOffset" : 0, "componentType" : 5126, "count" : 6978, "type" : "VEC3", "max" : [1.149999976158142, 30.34630012512207, 22.649999618530273], "min" : [-1.149999976158142, 28.146299362182617, 20.350000381469727]}, {"bufferView" : 5, "byteOffset" : 12, "componentType" : 5126, "count" : 6978, "type" : "VEC2", "max" : [1, -0], "min" : [0, -1]}, {"bufferView" : 5, "byteOffset" : 20, "componentType" : 5126, "count" : 6978, "type" : "VEC3", "max" : [1.0000044107437134, 1.0000044107437134, 1.0000044107437134], "min" : [-1.0000044107437134, -1.0000044107437134, -1.0000044107437134]}, {"bufferView" : 0, "byteOffset" : 23112, "componentType" : 5123, "count" : 13830, "type" : "SCALAR", "max" : [13829], "min" : [0]}, {"bufferView" : 6, "byteOffset" : 0, "componentType" : 5126, "count" : 13830, "type" : "VEC3", "max" : [9.100000381469727, 9.75, 2.3499999046325684], "min" : [6.099999904632568, 5.050000190734863, -2.3499999046325684]}, {"bufferView" : 6, "byteOffset" : 12, "componentType" : 5126, "count" : 13830, "type" : "VEC2", "max" : [1, -0], "min" : [0, -1]}, {"bufferView" : 6, "byteOffset" : 20, "componentType" : 5126, "count" : 13830, "type" : "VEC3", "max" : [1.0000044107437134, 1.0000044107437134, 1.0000044107437134], "min" : [-1.0000044107437134, -1.0000044107437134, -1.0000044107437134]}, {"bufferView" : 0, "byteOffset" : 50772, "componentType" : 5123, "count" : 3546, "type" : "SCALAR", "max" : [3545], "min" : [0]}, {"bufferView" : 7, "byteOffset" : 0, "componentType" : 5126, "count" : 3546, "type" : "VEC3", "max" : [8.100000381469727, 15.788200378417969, 0.5], "min" : [7.099999904632568, 9.588199615478516, -0.5]}, {"bufferView" : 7, "byteOffset" : 12, "componentType" : 5126, "count" : 3546, "type" : "VEC2", "max" : [1, -0], "min" : [0, -1]}, {"bufferView" : 7, "byteOffset" : 20, "componentType" : 5126, "count" : 3546, "type" : "VEC3", "max" : [1.0000044107437134, 1.0000044107437134, 1.0000044107437134], "min" : [-1.0000044107437134, -1.0000044107437134, -1.0000044107437134]}, {"bufferView" : 0, "byteOffset" : 57864, "componentType" : 5123, "count" : 42690, "type" : "SCALAR", "max" : [42689], "min" : [0]}, {"bufferView" : 8, "byteOffset" : 0, "componentType" : 5126, "count" : 42690, "type" : "VEC3", "max" : [1.2999999523162842, 31.049999237060547, 23.600000381469727], "min" : [-1.2999999523162842, 8, -1.2999999523162842]}, {"bufferView" : 8, "byteOffset" : 12, "componentType" : 5126, "count" : 42690, "type" : "VEC2", "max" : [1, -0], "min" : [0, -1]}, {"bufferView" : 8, "byteOffset" : 20, "componentType" : 5126, "count" : 42690, "type" : "VEC3", "max" : [1.0000044107437134, 1.0000044107437134, 1.0000044107437134], "min" : [-1.0000044107437134, -1.0000044107437134, -1.0000044107437134]}, {"bufferView" : 0, "byteOffset" : 143244, "componentType" : 5123, "count" : 24684, "type" : "SCALAR", "max" : [24683], "min" : [0]}, {"bufferView" : 9, "byteOffset" : 0, "componentType" : 5126, "count" : 24684, "type" : "VEC3", "max" : [6, 9.75, 2.3499999046325684], "min" : [-4.5, 5.050000190734863, -2.3499999046325684]}, {"bufferView" : 9, "byteOffset" : 12, "componentType" : 5126, "count" : 24684, "type" : "VEC2", "max" : [1, -0], "min" : [0, -1]}, {"bufferView" : 9, "byteOffset" : 20, "componentType" : 5126, "count" : 24684, "type" : "VEC3", "max" : [1.0000044107437134, 1.0000044107437134, 1.0000044107437134], "min" : [-1.0000044107437134, -1.0000044107437134, -1.0000044107437134]}], "asset" : {"generator" : "Aspose.3D 20.11", "version" : "2.0"}, "buffers" : [{"uri" : "buffer.bin", "byteLength" : 3274444}], "bufferViews" : [{"buffer" : 0, "byteOffset" : 0, "byteLength" : 192612, "target" : 34963}, {"buffer" : 0, "byteOffset" : 192616, "byteLength" : 16512, "byteStride" : 32, "target" : 34962}, {"buffer" : 0, "byteOffset" : 209132, "byteLength" : 109440, "byteStride" : 32, "target" : 34962}, {"buffer" : 0, "byteOffset" : 318576, "byteLength" : 16512, "byteStride" : 32, "target" : 34962}, {"buffer" : 0, "byteOffset" : 335092, "byteLength" : 4032, "byteStride" : 32, "target" : 34962}, {"buffer" : 0, "byteOffset" : 339128, "byteLength" : 223296, "byteStride" : 32, "target" : 34962}, {"buffer" : 0, "byteOffset" : 562428, "byteLength" : 442560, "byteStride" : 32, "target" : 34962}, {"buffer" : 0, "byteOffset" : 1004992, "byteLength" : 113472, "byteStride" : 32, "target" : 34962}, {"buffer" : 0, "byteOffset" : 1118468, "byteLength" : 1366080, "byteStride" : 32, "target" : 34962}, {"buffer" : 0, "byteOffset" : 2484552, "byteLength" : 789888, "byteStride" : 32, "target" : 34962}], "meshes" : [{"primitives" : [{"attributes" : {"POSITION" : 1, "TEXCOORD_0" : 2, "NORMAL" : 3}, "indices" : 0, "mode" : 4}]}, {"primitives" : [{"attributes" : {"POSITION" : 5, "TEXCOORD_0" : 6, "NORMAL" : 7}, "indices" : 4, "mode" : 4}]}, {"primitives" : [{"attributes" : {"POSITION" : 9, "TEXCOORD_0" : 10, "NORMAL" : 11}, "indices" : 8, "mode" : 4}]}, {"primitives" : [{"attributes" : {"POSITION" : 13, "TEXCOORD_0" : 14, "NORMAL" : 15}, "indices" : 12, "mode" : 4}]}, {"primitives" : [{"attributes" : {"POSITION" : 17, "TEXCOORD_0" : 18, "NORMAL" : 19}, "indices" : 16, "mode" : 4}]}, {"primitives" : [{"attributes" : {"POSITION" : 21, "TEXCOORD_0" : 22, "NORMAL" : 23}, "indices" : 20, "mode" : 4}]}, {"primitives" : [{"attributes" : {"POSITION" : 25, "TEXCOORD_0" : 26, "NORMAL" : 27}, "indices" : 24, "mode" : 4}]}, {"primitives" : [{"attributes" : {"POSITION" : 29, "TEXCOORD_0" : 30, "NORMAL" : 31}, "indices" : 28, "mode" : 4}]}, {"primitives" : [{"attributes" : {"POSITION" : 33, "TEXCOORD_0" : 34, "NORMAL" : 35}, "indices" : 32, "mode" : 4}]}], "nodes" : [{"mesh" : 0, "name" : "obj1"}, {"mesh" : 1, "name" : "obj2"}, {"mesh" : 2, "name" : "obj3"}, {"mesh" : 3, "name" : "obj4"}, {"mesh" : 4, "name" : "obj5"}, {"mesh" : 5, "name" : "obj6"}, {"mesh" : 6, "name" : "obj7"}, {"mesh" : 7, "name" : "obj8"}, {"mesh" : 8, "name" : "obj9"}], "scene" : 0, "scenes" : [{"nodes" : [0, 1, 2, 3, 4, 5, 6, 7, 8]}]}